<?xml version="1.0" encoding="UTF-8"?>
<svg width="40px" height="40px" viewBox="0 0 40 40" version="1.1" xmlns="http://www.w3.org/2000/svg" xmlns:xlink="http://www.w3.org/1999/xlink">
    <!-- Generator: Sketch 59.1 (86144) - https://sketch.com -->
    <title>icon-discovery</title>
    <desc>Created with Sketch.</desc>
    <g id="Page-1" stroke="none" stroke-width="1" fill="none" fill-rule="evenodd">
        <g id="icon-discovery" fill-rule="nonzero">
            <path d="M26.08,4.6 L26.08,4.6 C20.16,-1.32 10.52,-1.32 4.6,4.6 C-1.32,10.52 -1.32,20.16 4.6,26.08 C7.56,29.04 11.44,30.52 15.36,30.52 C19.28,30.52 23.16,29.04 26.12,26.08 C32,20.16 32,10.52 26.08,4.6 Z M24.4,24.4 C19.4,29.4 11.28,29.4 6.28,24.4 C1.28,19.4 1.28,11.28 6.28,6.28 C8.76,3.8 12.04,2.52 15.32,2.52 C18.6,2.52 21.88,3.76 24.36,6.28 C29.36,11.28 29.36,19.4 24.4,24.4 Z M36.28,39.88 C37.2,39.88 38.12,39.52 38.84,38.84 L38.84,38.84 C40.24,37.44 40.24,35.16 38.84,33.76 L33.72,28.64 C33.04,27.96 32.12,27.6 31.16,27.6 C30.6,27.6 30.08,27.72 29.6,27.96 L28.6,26.96 C28.12,26.48 27.36,26.48 26.92,26.96 C26.44,27.44 26.44,28.2 26.92,28.64 L27.92,29.64 C27.68,30.12 27.56,30.64 27.56,31.2 C27.56,32.16 27.92,33.08 28.6,33.76 L33.72,38.8 C34.44,39.52 35.36,39.88 36.28,39.88 Z M29.96,31.16 C29.96,30.84 30.08,30.52 30.32,30.32 C30.56,30.08 30.84,29.96 31.16,29.96 C31.48,29.96 31.8,30.08 32,30.32 L37.08,35.4 C37.56,35.88 37.56,36.64 37.08,37.08 C36.6,37.56 35.84,37.56 35.4,37.08 L30.32,32.04 C30.08,31.8 29.96,31.48 29.96,31.16 Z" id="Shape" fill="#000000"></path>
            <path d="M15.32,4.92 C12.56,4.92 9.96,6 8,8 C6.12,9.88 5.08,12.32 4.96,14.96 C4.92,15.64 5.44,16.16 6.12,16.2 C6.12,16.2 6.16,16.2 6.16,16.2 C6.8,16.2 7.32,15.68 7.36,15.04 C7.44,13 8.28,11.12 9.68,9.68 C11.2,8.16 13.2,7.32 15.32,7.32 C16,7.32 16.52,6.8 16.52,6.12 C16.52,5.44 16,4.92 15.32,4.92 Z M8.4,20 C7.7372583,20 7.2,20.5372583 7.2,21.2 C7.2,21.8627417 7.7372583,22.4 8.4,22.4 C9.0627417,22.4 9.6,21.8627417 9.6,21.2 C9.6,20.5372583 9.0627417,20 8.4,20 Z" id="Shape" fill="#3BCEAC"></path>
        </g>
    </g>
</svg>