<?xml version="1.0" encoding="UTF-8"?>
<svg width="35px" height="40px" viewBox="0 0 35 40" version="1.1" xmlns="http://www.w3.org/2000/svg" xmlns:xlink="http://www.w3.org/1999/xlink">
    <!-- Generator: Sketch 59.1 (86144) - https://sketch.com -->
    <title>icon-styleguide</title>
    <desc>Created with Sketch.</desc>
    <g id="Page-1" stroke="none" stroke-width="1" fill="none" fill-rule="evenodd">
        <g id="icon-styleguide" fill-rule="nonzero">
            <path d="M34.1071429,35.3571429 L34.1071429,4.64285714 C34.1071429,2.07142857 32.0357143,0 29.4642857,0 L4.82142857,0 C2.25,0 0.178571429,2.07142857 0.178571429,4.64285714 L0.178571429,35.3571429 C0.178571429,37.9285714 2.25,40 4.82142857,40 L29.4642857,40 C32.0357143,40 34.1071429,37.9285714 34.1071429,35.3571429 Z M31.9642857,35.3571429 C31.9642857,36.75 30.8571429,37.8571429 29.4642857,37.8571429 L5.10714286,37.8571429 L5.10714286,2.14285714 L29.4642857,2.14285714 C30.8571429,2.14285714 31.9642857,3.25 31.9642857,4.64285714 L31.9642857,35.3571429 Z" id="Shape" fill="#000000"></path>
            <path d="M21.75,22 L14.6071429,22 C14,22 13.5357143,22.4642857 13.5357143,23.0714286 C13.5357143,23.6785714 14,24.1428571 14.6071429,24.1428571 L21.75,24.1428571 C22.3571429,24.1428571 22.8214286,23.6785714 22.8214286,23.0714286 C22.8214286,22.4642857 22.3571429,22 21.75,22 Z M21.75,25.5714286 L14.6071429,25.5714286 C14,25.5714286 13.5357143,26.0357143 13.5357143,26.6428571 C13.5357143,27.25 14,27.7142857 14.6071429,27.7142857 L21.75,27.7142857 C22.3571429,27.7142857 22.8214286,27.25 22.8214286,26.6428571 C22.8214286,26.0357143 22.3571429,25.5714286 21.75,25.5714286 Z M18.1785714,9.5 C15.6071429,9.5 13.5357143,11.5714286 13.5357143,14.1428571 C13.5357143,16.7142857 15.6071429,18.7857143 18.1785714,18.7857143 C20.75,18.7857143 22.8214286,16.7142857 22.8214286,14.1428571 C22.8214286,11.5714286 20.75,9.5 18.1785714,9.5 Z M18.1785714,16.6428571 C16.7857143,16.6428571 15.6785714,15.5357143 15.6785714,14.1428571 C15.6785714,12.75 16.7857143,11.6428571 18.1785714,11.6428571 C19.5714286,11.6428571 20.6785714,12.75 20.6785714,14.1428571 C20.6785714,15.5357143 19.5714286,16.6428571 18.1785714,16.6428571 Z" id="Shape" fill="#3BCEAC"></path>
        </g>
    </g>
</svg>