<?xml version="1.0" encoding="UTF-8"?>
<svg width="41px" height="40px" viewBox="0 0 41 40" version="1.1" xmlns="http://www.w3.org/2000/svg" xmlns:xlink="http://www.w3.org/1999/xlink">
    <!-- Generator: Sketch 59.1 (86144) - https://sketch.com -->
    <title>icon-design</title>
    <desc>Created with Sketch.</desc>
    <g id="Page-1" stroke="none" stroke-width="1" fill="none" fill-rule="evenodd">
        <g id="icon-design" fill-rule="nonzero">
            <path d="M4.26229508,6.2295082 C3.09093248,6.2295082 2.00854878,6.85442267 1.42286747,7.86885244 C0.837186161,8.88328221 0.837186161,10.1331112 1.42286747,11.147541 C2.00854878,12.1619708 3.09093248,12.7868852 4.26229508,12.7868852 C5.43365769,12.7868852 6.51604138,12.1619708 7.10172269,11.147541 C7.687404,10.1331112 7.687404,8.88328221 7.10172269,7.86885244 C6.51604138,6.85442267 5.43365769,6.2295082 4.26229508,6.2295082 Z M30.4918033,32.4590164 C28.6810336,32.4590164 27.2131148,33.9269352 27.2131148,35.7377049 C27.2131148,37.5484746 28.6810336,39.0163934 30.4918033,39.0163934 C32.302573,39.0163934 33.7704918,37.5484746 33.7704918,35.7377049 C33.7704918,33.9269352 32.302573,32.4590164 30.4918033,32.4590164 Z M36.1967213,7.24590164 C36.295082,7.18032787 34.8852459,9.08196721 34.6229508,12.1311475 C34.3606557,15.1803279 35.1803279,19.442623 35.147541,19.4754098 L35.147541,19.4754098 L13.1147541,27.1803279 L20.7540984,5.14754098 L20.7540984,5.14754098 C20.7868852,5.1147541 24.7213115,6 27.6065574,5.73770492 C30.852459,5.44262295 33.0819672,4 33.0163934,4.09836066" id="Shape" fill="#FFFFFF"></path>
            <path d="M39.9344262,9.60655738 L36.9180328,6.59016393 C36.9180328,6.59016393 36.8852459,6.55737705 36.8852459,6.55737705 C36.8852459,6.55737705 36.8852459,6.55737705 36.852459,6.52459016 L33.7377049,3.40983607 C33.7377049,3.40983607 33.7377049,3.40983607 33.7377049,3.37704918 C33.704918,3.3442623 33.6721311,3.31147541 33.6393443,3.27868852 L30.6885246,0.327868852 C30.295082,-0.0655737705 29.6721311,-0.0655737705 29.3114754,0.327868852 C28.9180328,0.721311475 28.9180328,1.3442623 29.3114754,1.70491803 L31.3770492,3.7704918 C30.4918033,4.13114754 29.147541,4.59016393 27.5737705,4.72131148 C25.3770492,4.91803279 22.4918033,4.42622951 21.4098361,4.2295082 C20.852459,4.13114754 20.4918033,4.06557377 20.1311475,4.42622951 C20.0327869,4.52459016 19.9344262,4.6557377 19.9016393,4.78688525 L15.0491803,18.8852459 C14.8852459,19.4098361 15.147541,19.9672131 15.6721311,20.1311475 C15.7704918,20.1639344 15.9016393,20.1967213 16,20.1967213 C16.3934426,20.1967213 16.7868852,19.9344262 16.9180328,19.5409836 L21.5081967,6.2295082 C22.852459,6.45901639 25.5737705,6.8852459 27.7704918,6.68852459 C29.4754098,6.52459016 31.2131148,6.03278689 32.8852459,5.24590164 L35.0491803,7.40983607 C34.295082,8.85245902 33.8360656,10.3934426 33.704918,12.0327869 C33.4754098,14.3934426 33.9016393,17.4098361 34.1311475,18.8196721 L16.852459,24.8196721 L26.3278689,15.3442623 C26.7213115,14.9508197 26.7213115,14.3278689 26.3278689,13.9672131 C25.9344262,13.5737705 25.3114754,13.5737705 24.9508197,13.9672131 L12.4262295,26.4590164 C12.4262295,26.4590164 12.3934426,26.4918033 12.3934426,26.4918033 C12.3606557,26.5245902 12.3606557,26.557377 12.3278689,26.5901639 C12.295082,26.6229508 12.295082,26.6557377 12.295082,26.6557377 C12.295082,26.6885246 12.2622951,26.7213115 12.2622951,26.7540984 C12.2622951,26.7868852 12.2295082,26.8196721 12.2295082,26.852459 C12.2295082,26.8852459 12.1967213,26.9180328 12.1967213,26.9508197 C12.1967213,26.9836066 12.1967213,27.0163934 12.1967213,27.0491803 C12.1967213,27.0819672 12.1967213,27.1147541 12.1967213,27.147541 C12.1967213,27.1803279 12.1967213,27.2131148 12.1967213,27.2459016 C12.1967213,27.2786885 12.1967213,27.3114754 12.1967213,27.3442623 C12.1967213,27.3770492 12.1967213,27.4098361 12.2295082,27.442623 C12.2295082,27.4754098 12.2295082,27.4754098 12.2295082,27.5081967 C12.2295082,27.5081967 12.2295082,27.5081967 12.2295082,27.5409836 C12.2295082,27.5737705 12.2622951,27.5737705 12.2622951,27.6065574 C12.295082,27.6393443 12.295082,27.6721311 12.3278689,27.704918 C12.3278689,27.7377049 12.3606557,27.7377049 12.3606557,27.7704918 C12.3934426,27.8032787 12.4262295,27.8360656 12.4590164,27.8688525 C12.4590164,27.8688525 12.4590164,27.8688525 12.4918033,27.9016393 C12.4918033,27.9016393 12.4918033,27.9016393 12.4918033,27.9016393 C12.5245902,27.9344262 12.5901639,27.9672131 12.6229508,28 C12.6229508,28 12.6557377,28 12.6557377,28.0327869 C12.6885246,28.0655738 12.7213115,28.0655738 12.7540984,28.0983607 C12.7868852,28.0983607 12.7868852,28.0983607 12.8196721,28.1311475 C12.852459,28.1311475 12.8852459,28.1639344 12.9508197,28.1639344 C12.9836066,28.1639344 12.9836066,28.1639344 13.0163934,28.1639344 C13.0819672,28.1639344 13.1147541,28.1967213 13.1803279,28.1967213 C13.2459016,28.1967213 13.3114754,28.1967213 13.3442623,28.1639344 C13.3770492,28.1639344 13.3770492,28.1639344 13.4098361,28.1639344 C13.442623,28.1639344 13.4754098,28.1639344 13.5081967,28.1311475 L35.5409836,20.4918033 C35.6721311,20.4590164 35.8032787,20.3606557 35.9016393,20.2622951 C36.2622951,19.9016393 36.2295082,19.5737705 36.0983607,18.9180328 C35.9016393,17.7377049 35.442623,14.6229508 35.6393443,12.295082 C35.7377049,11.1147541 36.0327869,10 36.4918033,8.95081967 L38.5901639,11.0491803 C38.7868852,11.2459016 39.0491803,11.3442623 39.2786885,11.3442623 C39.5081967,11.3442623 39.7704918,11.2459016 39.9672131,11.0491803 C40.3278689,10.6229508 40.3278689,10 39.9344262,9.60655738 Z" id="Path" fill="#000000"></path>
            <path d="M27.9672131,13.3114754 C27.704918,13.3114754 27.442623,13.2131148 27.2786885,13.0163934 C27.0819672,12.8196721 26.9836066,12.5901639 26.9836066,12.3278689 C26.9836066,12.0655738 27.0819672,11.8032787 27.2786885,11.6393443 C27.5081967,11.4098361 27.8360656,11.3114754 28.1639344,11.3770492 C28.2295082,11.3770492 28.295082,11.4098361 28.3606557,11.442623 C28.4262295,11.4754098 28.4918033,11.5081967 28.5245902,11.5409836 C28.5901639,11.5737705 28.6229508,11.6065574 28.6885246,11.6721311 C28.7213115,11.704918 28.7868852,11.7704918 28.8196721,11.8360656 C28.852459,11.9016393 28.8852459,11.9344262 28.9180328,12 C28.9508197,12.0655738 28.9508197,12.1311475 28.9836066,12.1967213 C28.9836066,12.2622951 29.0163934,12.3278689 29.0163934,12.3934426 C29.0163934,12.6557377 28.9180328,12.9180328 28.7213115,13.0819672 C28.6885246,13.1147541 28.6229508,13.1803279 28.557377,13.2131148 C28.4918033,13.2459016 28.4590164,13.2786885 28.3934426,13.3114754 C28.3278689,13.3442623 28.2622951,13.3442623 28.1967213,13.3770492 C28.1311475,13.4098361 28,13.3114754 27.9672131,13.3114754 Z" id="Path" fill="#000000"></path>
            <path d="M30.4918033,31.4754098 C28.4918033,31.4754098 26.7868852,32.8852459 26.3606557,34.7540984 L23.9344262,34.7540984 C13.6393443,34.7540984 5.24590164,26.3606557 5.24590164,16.0655738 L5.24590164,13.6393443 C7.1147541,13.1803279 8.52459016,11.5081967 8.52459016,9.50819672 C8.52459016,7.14754098 6.62295082,5.24590164 4.26229508,5.24590164 C1.90163934,5.24590164 0,7.14754098 0,9.50819672 C0,11.5081967 1.40983607,13.2131148 3.27868852,13.6393443 L3.27868852,16.0655738 C3.27868852,27.442623 12.557377,36.7213115 23.9344262,36.7213115 L26.3606557,36.7213115 C26.8196721,38.5901639 28.4918033,40 30.4918033,40 C32.852459,40 34.7540984,38.0983607 34.7540984,35.7377049 C34.7540984,33.3770492 32.852459,31.4754098 30.4918033,31.4754098 Z M1.96721311,9.50819672 C1.96721311,8.2295082 2.98360656,7.21311475 4.26229508,7.21311475 C5.54098361,7.21311475 6.55737705,8.2295082 6.55737705,9.50819672 C6.55737705,10.7868852 5.54098361,11.8032787 4.26229508,11.8032787 C2.98360656,11.8032787 1.96721311,10.7868852 1.96721311,9.50819672 Z M30.4918033,38.0327869 C29.2131148,38.0327869 28.1967213,37.0163934 28.1967213,35.7377049 C28.1967213,34.4590164 29.2131148,33.442623 30.4918033,33.442623 C31.7704918,33.442623 32.7868852,34.4590164 32.7868852,35.7377049 C32.7868852,37.0163934 31.7704918,38.0327869 30.4918033,38.0327869 Z" id="Shape" fill="#3BCEAC"></path>
        </g>
    </g>
</svg>