<?xml version="1.0" encoding="UTF-8"?>
<svg width="38px" height="40px" viewBox="0 0 38 40" version="1.1" xmlns="http://www.w3.org/2000/svg" xmlns:xlink="http://www.w3.org/1999/xlink">
    <!-- Generator: Sketch 59.1 (86144) - https://sketch.com -->
    <title>icon-touch-up</title>
    <desc>Created with Sketch.</desc>
    <g id="Page-1" stroke="none" stroke-width="1" fill="none" fill-rule="evenodd">
        <g id="icon-touch-up" fill-rule="nonzero">
            <path d="M34.4615385,10.6923077 L34.4615385,2.88461538 C34.4615385,1.38461538 33.2307692,0.192307692 31.7692308,0.192307692 L2.73076923,0.192307692 C1.23076923,0.192307692 0.0384615385,1.42307692 0.0384615385,2.88461538 L0.0384615385,10.6538462 C0.0384615385,12.1538462 1.26923077,13.3461538 2.73076923,13.3461538 L31.7692308,13.3461538 C33.2307692,13.3846154 34.4615385,12.1538462 34.4615385,10.6923077 Z M2.30769231,10.6923077 L2.30769231,2.88461538 C2.30769231,2.65384615 2.5,2.5 2.69230769,2.5 L31.7307692,2.5 C31.9615385,2.5 32.1153846,2.69230769 32.1153846,2.88461538 L32.1153846,10.6538462 C32.1153846,10.8846154 31.9230769,11.0384615 31.7307692,11.0384615 L2.73076923,11.0384615 C2.5,11.0769231 2.30769231,10.8846154 2.30769231,10.6923077 Z" id="Shape" fill="#3BCEAC"></path>
            <path d="M19.7692308,19.1538462 L34.3076923,16.9230769 C36.3461538,16.5769231 37.8461538,14.8076923 37.8461538,12.7307692 L37.8461538,7.19230769 C37.8461538,6.53846154 37.3461538,6.03846154 36.6923077,6.03846154 C36.0384615,6.03846154 35.5384615,6.53846154 35.5384615,7.19230769 L35.5384615,12.6923077 C35.5384615,13.6538462 34.8461538,14.4615385 33.9230769,14.6153846 L19.3846154,16.8461538 C17.3461538,17.1923077 15.8461538,18.9615385 15.8461538,21.0384615 L15.8461538,23.9615385 L14.7307692,23.9615385 C14.0769231,23.9615385 13.5769231,24.4615385 13.5769231,25.1153846 L13.5769231,38.5769231 C13.5769231,39.2307692 14.0769231,39.7307692 14.7307692,39.7307692 L19.3461538,39.7307692 C20,39.7307692 20.5,39.2307692 20.5,38.5769231 L20.5,25.1153846 C20.5,24.4615385 20,23.9615385 19.3461538,23.9615385 L18.1538462,23.9615385 L18.1538462,21.0384615 C18.1538462,20.1153846 18.8461538,19.3076923 19.7692308,19.1538462 Z M17.0384615,37.4615385 L15.8846154,37.4615385 L15.8846154,26.3076923 L17.0384615,26.3076923 L17.0384615,37.4615385 Z" id="Shape" fill="#000000"></path>
        </g>
    </g>
</svg>