<?xml version="1.0" encoding="UTF-8"?>
<svg width="33px" height="40px" viewBox="0 0 33 40" version="1.1" xmlns="http://www.w3.org/2000/svg" xmlns:xlink="http://www.w3.org/1999/xlink">
    <!-- Generator: Sketch 59.1 (86144) - https://sketch.com -->
    <title>icon-design-audit</title>
    <desc>Created with Sketch.</desc>
    <g id="Page-1" stroke="none" stroke-width="1" fill="none" fill-rule="evenodd">
        <g id="icon-design-audit">
            <path d="M14.5762712,4.40677966 L31.5254237,4.40677966 C32.1016949,4.40677966 32.5423729,3.96610169 32.5423729,3.38983051 C32.5423729,2.81355932 32.1016949,2.37288136 31.5254237,2.37288136 L14.5762712,2.37288136 C14,2.37288136 13.559322,2.81355932 13.559322,3.38983051 C13.559322,3.96610169 14,4.40677966 14.5762712,4.40677966 Z M14.5762712,8.47457627 L21.3559322,8.47457627 C21.9322034,8.47457627 22.3728814,8.03389831 22.3728814,7.45762712 C22.3728814,6.88135593 21.9322034,6.44067797 21.3559322,6.44067797 L14.5762712,6.44067797 C14,6.44067797 13.559322,6.88135593 13.559322,7.45762712 C13.559322,8.03389831 14,8.47457627 14.5762712,8.47457627 Z M14.5762712,18.9830508 L31.5254237,18.9830508 C32.1016949,18.9830508 32.5423729,18.5423729 32.5423729,17.9661017 C32.5423729,17.3898305 32.1016949,16.9491525 31.5254237,16.9491525 L14.5762712,16.9491525 C14,16.9491525 13.559322,17.3898305 13.559322,17.9661017 C13.559322,18.5423729 14,18.9830508 14.5762712,18.9830508 Z M14.5762712,23.0508475 L21.3559322,23.0508475 C21.9322034,23.0508475 22.3728814,22.6101695 22.3728814,22.0338983 C22.3728814,21.4576271 21.9322034,21.0169492 21.3559322,21.0169492 L14.5762712,21.0169492 C14,21.0169492 13.559322,21.4576271 13.559322,22.0338983 C13.559322,22.6101695 14,23.0508475 14.5762712,23.0508475 Z M14.5762712,33.559322 L31.5254237,33.559322 C32.1016949,33.559322 32.5423729,33.1186441 32.5423729,32.5423729 C32.5423729,31.9661017 32.1016949,31.5254237 31.5254237,31.5254237 L14.5762712,31.5254237 C14,31.5254237 13.559322,31.9661017 13.559322,32.5423729 C13.559322,33.1186441 14,33.559322 14.5762712,33.559322 Z M14.5762712,37.6271186 L21.3559322,37.6271186 C21.9322034,37.6271186 22.3728814,37.1864407 22.3728814,36.6101695 C22.3728814,36.0338983 21.9322034,35.5932203 21.3559322,35.5932203 L14.5762712,35.5932203 C14,35.5932203 13.559322,36.0338983 13.559322,36.6101695 C13.559322,37.1864407 14,37.6271186 14.5762712,37.6271186 Z" id="Shape" fill="#000000" fill-rule="nonzero"></path>
            <path d="M5.42372881,40 C8.40677966,40 10.8474576,37.559322 10.8474576,34.5762712 C10.8474576,31.5932203 8.40677966,29.1525424 5.42372881,29.1525424 C2.44067797,29.1525424 0,31.5932203 0,34.5762712 C0,37.559322 2.44067797,40 5.42372881,40 Z" id="Path" fill="#3BCEAC"></path>
            <path d="M5.42372881,10.8474576 C8.40677966,10.8474576 10.8474576,8.40677966 10.8474576,5.42372881 C10.8474576,2.44067797 8.40677966,0 5.42372881,0 C2.44067797,0 0,2.44067797 0,5.42372881 C0,8.40677966 2.44067797,10.8474576 5.42372881,10.8474576 Z" id="Path" fill="#3BCEAC"></path>
            <g id="Group" transform="translate(0.000000, 14.580000)" fill="#000000">
                <path d="M5.42372881,8.8817842e-14 C8.40677966,8.8817842e-14 10.8474576,2.44067797 10.8474576,5.42372881 C10.8474576,8.40677966 8.40677966,10.8474576 5.42372881,10.8474576 C2.44067797,10.8474576 8.8817842e-14,8.40677966 8.8817842e-14,5.42372881 C8.8817842e-14,2.44067797 2.44067797,8.8817842e-14 5.42372881,8.8817842e-14 Z M5.42372881,2.03389831 C3.55932203,2.03389831 2.03389831,3.55932203 2.03389831,5.42372881 C2.03389831,7.28813559 3.55932203,8.81355932 5.42372881,8.81355932 C7.28813559,8.81355932 8.81355932,7.28813559 8.81355932,5.42372881 C8.81355932,3.55932203 7.28813559,2.03389831 5.42372881,2.03389831 Z" id="Combined-Shape"></path>
            </g>
        </g>
    </g>
</svg>