<?xml version="1.0" encoding="UTF-8"?>
<svg width="44px" height="40px" viewBox="0 0 44 40" version="1.1" xmlns="http://www.w3.org/2000/svg" xmlns:xlink="http://www.w3.org/1999/xlink">
    <!-- Generator: Sketch 59.1 (86144) - https://sketch.com -->
    <title>icon-copywrite</title>
    <desc>Created with Sketch.</desc>
    <g id="Page-1" stroke="none" stroke-width="1" fill="none" fill-rule="evenodd">
        <g id="icon-copywrite" fill-rule="nonzero">
            <g transform="translate(0.000000, 0.202020)" id="Shape">
                <path d="M36.3636364,35.959596 L4.84848485,35.959596 C4.16161616,35.959596 3.63636364,36.4848485 3.63636364,37.1717172 L3.63636364,38.3838384 C3.63636364,39.0707071 4.16161616,39.5959596 4.84848485,39.5959596 L38.7878788,39.5959596 C39.4747475,39.5959596 40,39.0707071 40,38.3838384 L40,23.4343434 C40,21.6161616 38.8282828,20.0808081 37.1717172,19.5959596 L37.1717172,3.23232323 C37.1717172,1.45454545 35.7171717,-7.10542736e-15 33.9393939,-7.10542736e-15 L9.6969697,-7.10542736e-15 C7.91919192,-7.10542736e-15 6.46464646,1.45454545 6.46464646,3.23232323 L6.46464646,16.0808081 C6.46464646,16.7676768 6.98989899,17.1717172 7.67676768,17.1717172 C8.36363636,17.1717172 8.88888889,16.6464646 8.88888889,15.959596 L8.88888889,3.23232323 C8.88888889,2.78787879 9.25252525,2.42424242 9.6969697,2.42424242 L33.9393939,2.42424242 C34.3838384,2.42424242 34.7474747,2.78787879 34.7474747,3.23232323 L34.7474747,19.3939394 L7.67676768,19.3939394 C5.45454545,19.3939394 3.63636364,21.2121212 3.63636364,23.4343434 L3.63636364,32.3232323 C3.63636364,33.010101 4.16161616,33.5353535 4.84848485,33.5353535 L36.3232323,33.5353535 C36.9292929,33.5353535 37.4545455,33.9393939 37.5757576,34.5050505 C37.6969697,35.2727273 37.1313131,35.959596 36.3636364,35.959596 Z M31.9191919,22.2222222 C32.6060606,22.2222222 33.1313131,22.7474747 33.1313131,23.4343434 C33.1313131,24.1212121 32.6060606,24.6464646 31.9191919,24.6464646 C31.2323232,24.6464646 30.7070707,24.1212121 30.7070707,23.4343434 C30.7070707,22.7474747 31.2323232,22.2222222 31.9191919,22.2222222 Z M27.8787879,22.2222222 C28.5656566,22.2222222 29.0909091,22.7474747 29.0909091,23.4343434 C29.0909091,24.1212121 28.5656566,24.6464646 27.8787879,24.6464646 C27.1919192,24.6464646 26.6666667,24.1212121 26.6666667,23.4343434 C26.6666667,22.7474747 27.1919192,22.2222222 27.8787879,22.2222222 Z M23.8383838,22.2222222 C24.5252525,22.2222222 25.0505051,22.7474747 25.0505051,23.4343434 C25.0505051,24.1212121 24.5252525,24.6464646 23.8383838,24.6464646 C23.1515152,24.6464646 22.6262626,24.1212121 22.6262626,23.4343434 C22.6262626,22.7474747 23.1515152,22.2222222 23.8383838,22.2222222 Z M19.7979798,22.2222222 C20.4848485,22.2222222 21.010101,22.7474747 21.010101,23.4343434 C21.010101,24.1212121 20.4848485,24.6464646 19.7979798,24.6464646 C19.1111111,24.6464646 18.5858586,24.1212121 18.5858586,23.4343434 C18.5858586,22.7474747 19.1111111,22.2222222 19.7979798,22.2222222 Z M15.7575758,22.2222222 C16.4444444,22.2222222 16.969697,22.7474747 16.969697,23.4343434 C16.969697,24.1212121 16.4444444,24.6464646 15.7575758,24.6464646 C15.0707071,24.6464646 14.5454545,24.1212121 14.5454545,23.4343434 C14.5454545,22.7474747 15.0707071,22.2222222 15.7575758,22.2222222 Z M11.7171717,22.2222222 C12.4040404,22.2222222 12.9292929,22.7474747 12.9292929,23.4343434 C12.9292929,24.1212121 12.4040404,24.6464646 11.7171717,24.6464646 C11.030303,24.6464646 10.5050505,24.1212121 10.5050505,23.4343434 C10.5050505,22.7474747 11.030303,22.2222222 11.7171717,22.2222222 Z M7.67676768,22.2222222 C8.36363636,22.2222222 8.88888889,22.7474747 8.88888889,23.4343434 C8.88888889,24.1212121 8.36363636,24.6464646 7.67676768,24.6464646 C6.98989899,24.6464646 6.46464646,24.1212121 6.46464646,23.4343434 C6.46464646,22.7474747 6.98989899,22.2222222 7.67676768,22.2222222 Z M7.67676768,31.1111111 C6.98989899,31.1111111 6.46464646,30.5858586 6.46464646,29.8989899 C6.46464646,29.2121212 6.98989899,28.6868687 7.67676768,28.6868687 C8.36363636,28.6868687 8.88888889,29.2121212 8.88888889,29.8989899 C8.88888889,30.5858586 8.36363636,31.1111111 7.67676768,31.1111111 Z M8.48484848,26.6666667 C8.48484848,25.979798 9.01010101,25.4545455 9.6969697,25.4545455 C10.3838384,25.4545455 10.9090909,25.979798 10.9090909,26.6666667 C10.9090909,27.3535354 10.3838384,27.8787879 9.6969697,27.8787879 C9.01010101,27.8787879 8.48484848,27.3535354 8.48484848,26.6666667 Z M11.7171717,31.1111111 C11.030303,31.1111111 10.5050505,30.5858586 10.5050505,29.8989899 C10.5050505,29.2121212 11.030303,28.6868687 11.7171717,28.6868687 C12.4040404,28.6868687 12.9292929,29.2121212 12.9292929,29.8989899 C12.9292929,30.5858586 12.4040404,31.1111111 11.7171717,31.1111111 Z M12.5252525,26.6666667 C12.5252525,25.979798 13.0505051,25.4545455 13.7373737,25.4545455 C14.4242424,25.4545455 14.9494949,25.979798 14.9494949,26.6666667 C14.9494949,27.3535354 14.4242424,27.8787879 13.7373737,27.8787879 C13.0505051,27.8787879 12.5252525,27.3535354 12.5252525,26.6666667 Z M15.7575758,31.1111111 C15.0707071,31.1111111 14.5454545,30.5858586 14.5454545,29.8989899 C14.5454545,29.2121212 15.0707071,28.6868687 15.7575758,28.6868687 C16.4444444,28.6868687 16.969697,29.2121212 16.969697,29.8989899 C16.969697,30.5858586 16.4444444,31.1111111 15.7575758,31.1111111 Z M16.5656566,26.6666667 C16.5656566,25.979798 17.0909091,25.4545455 17.7777778,25.4545455 C18.4646465,25.4545455 18.989899,25.979798 18.989899,26.6666667 C18.989899,27.3535354 18.4646465,27.8787879 17.7777778,27.8787879 C17.0909091,27.8787879 16.5656566,27.3535354 16.5656566,26.6666667 Z M19.7979798,31.1111111 C19.1111111,31.1111111 18.5858586,30.5858586 18.5858586,29.8989899 C18.5858586,29.2121212 19.1111111,28.6868687 19.7979798,28.6868687 C20.4848485,28.6868687 21.010101,29.2121212 21.010101,29.8989899 C21.010101,30.5858586 20.4848485,31.1111111 19.7979798,31.1111111 Z M20.6060606,26.6666667 C20.6060606,25.979798 21.1313131,25.4545455 21.8181818,25.4545455 C22.5050505,25.4545455 23.030303,25.979798 23.030303,26.6666667 C23.030303,27.3535354 22.5050505,27.8787879 21.8181818,27.8787879 C21.1313131,27.8787879 20.6060606,27.3535354 20.6060606,26.6666667 Z M23.8383838,31.1111111 C23.1515152,31.1111111 22.6262626,30.5858586 22.6262626,29.8989899 C22.6262626,29.2121212 23.1515152,28.6868687 23.8383838,28.6868687 C24.5252525,28.6868687 25.0505051,29.2121212 25.0505051,29.8989899 C25.0505051,30.5858586 24.5252525,31.1111111 23.8383838,31.1111111 Z M24.6464646,26.6666667 C24.6464646,25.979798 25.1717172,25.4545455 25.8585859,25.4545455 C26.5454545,25.4545455 27.0707071,25.979798 27.0707071,26.6666667 C27.0707071,27.3535354 26.5454545,27.8787879 25.8585859,27.8787879 C25.1717172,27.8787879 24.6464646,27.3535354 24.6464646,26.6666667 Z M27.8787879,31.1111111 C27.1919192,31.1111111 26.6666667,30.5858586 26.6666667,29.8989899 C26.6666667,29.2121212 27.1919192,28.6868687 27.8787879,28.6868687 C28.5656566,28.6868687 29.0909091,29.2121212 29.0909091,29.8989899 C29.0909091,30.5858586 28.5656566,31.1111111 27.8787879,31.1111111 Z M28.6868687,26.6666667 C28.6868687,25.979798 29.2121212,25.4545455 29.8989899,25.4545455 C30.5858586,25.4545455 31.1111111,25.979798 31.1111111,26.6666667 C31.1111111,27.3535354 30.5858586,27.8787879 29.8989899,27.8787879 C29.2121212,27.8787879 28.6868687,27.3535354 28.6868687,26.6666667 Z M31.9191919,31.1111111 C31.2323232,31.1111111 30.7070707,30.5858586 30.7070707,29.8989899 C30.7070707,29.2121212 31.2323232,28.6868687 31.9191919,28.6868687 C32.6060606,28.6868687 33.1313131,29.2121212 33.1313131,29.8989899 C33.1313131,30.5858586 32.6060606,31.1111111 31.9191919,31.1111111 Z M32.7272727,26.6666667 C32.7272727,25.979798 33.2525253,25.4545455 33.9393939,25.4545455 C34.6262626,25.4545455 35.1515152,25.979798 35.1515152,26.6666667 C35.1515152,27.3535354 34.6262626,27.8787879 33.9393939,27.8787879 C33.2525253,27.8787879 32.7272727,27.3535354 32.7272727,26.6666667 Z M35.959596,31.1111111 C35.2727273,31.1111111 34.7474747,30.5858586 34.7474747,29.8989899 C34.7474747,29.2121212 35.2727273,28.6868687 35.959596,28.6868687 C36.6464646,28.6868687 37.1717172,29.2121212 37.1717172,29.8989899 C37.1717172,30.5858586 36.6464646,31.1111111 35.959596,31.1111111 Z M35.959596,24.6464646 C35.2727273,24.6464646 34.7474747,24.1212121 34.7474747,23.4343434 C34.7474747,22.7474747 35.2727273,22.2222222 35.959596,22.2222222 C36.6464646,22.2222222 37.1717172,22.7474747 37.1717172,23.4343434 C37.1717172,24.1212121 36.6464646,24.6464646 35.959596,24.6464646 Z M-6.03961325e-14,27.0707071 L-6.03961325e-14,31.1111111 C-6.03961325e-14,31.7979798 0.525252525,32.3232323 1.21212121,32.3232323 C1.8989899,32.3232323 2.42424242,31.7979798 2.42424242,31.1111111 L2.42424242,27.0707071 C2.42424242,26.3838384 1.8989899,25.8585859 1.21212121,25.8585859 C0.525252525,25.8585859 -6.03961325e-14,26.3838384 -6.03961325e-14,27.0707071 Z M41.2121212,31.5151515 C41.2121212,32.2020202 41.7373737,32.7272727 42.4242424,32.7272727 C43.1111111,32.7272727 43.6363636,32.2020202 43.6363636,31.5151515 L43.6363636,27.4747475 C43.6363636,26.7878788 43.1111111,26.2626263 42.4242424,26.2626263 C41.7373737,26.2626263 41.2121212,26.7878788 41.2121212,27.4747475 L41.2121212,31.5151515 Z" fill="#000000"></path>
                <path d="M14.2765957,9.35117129 L29.0425532,9.35117129 C29.7659574,9.35117129 30.3191489,8.7979798 30.3191489,8.07457554 C30.3191489,7.35117129 29.7659574,6.7979798 29.0425532,6.7979798 L14.2765957,6.7979798 C13.5531915,6.7979798 13,7.35117129 13,8.07457554 C13,8.7979798 13.5957447,9.35117129 14.2765957,9.35117129 Z M14.2765957,14.3511713 L19.8085106,14.3511713 C20.5319149,14.3511713 21.0851064,13.7979798 21.0851064,13.0745755 C21.0851064,12.3511713 20.5319149,11.7979798 19.8085106,11.7979798 L14.2765957,11.7979798 C13.5531915,11.7979798 13,12.3511713 13,13.0745755 C13,13.7979798 13.5957447,14.3511713 14.2765957,14.3511713 Z" fill="#3BCEAC"></path>
            </g>
        </g>
    </g>
</svg>