<?xml version="1.0" encoding="UTF-8"?>
<svg width="36px" height="40px" viewBox="0 0 36 40" version="1.1" xmlns="http://www.w3.org/2000/svg" xmlns:xlink="http://www.w3.org/1999/xlink">
    <!-- Generator: Sketch 59.1 (86144) - https://sketch.com -->
    <title>icon-planning</title>
    <desc>Created with Sketch.</desc>
    <g id="Page-1" stroke="none" stroke-width="1" fill="none" fill-rule="evenodd">
        <g id="icon-planning" transform="translate(0.000000, 0.302521)">
            <g id="icons8-tree_planting" transform="translate(0.000000, 3.697479)" fill="#000000" fill-rule="nonzero">
                <path d="M34.5882353,26.8907563 C34.2857143,26.1512605 33.4117647,24.9747899 31.2268908,25.6134454 C31.2268908,25.6134454 31.1932773,25.6134454 31.1932773,25.6134454 L27.2605042,26.9243697 C26.7226891,27.092437 26.4537815,27.6638655 26.6218487,28.2016807 C26.789916,28.7394958 27.3613445,29.0084034 27.8991597,28.8403361 L31.7647059,27.5294118 C32.5714286,27.2941176 32.6386555,27.4621849 32.7058824,27.6638655 C32.7731092,27.8319328 32.5042017,28.0336134 32.4705882,28.0336134 C28,30.3865546 22.7563025,33.1092437 21.3781513,33.6806723 C19.6302521,34.3865546 17.0420168,33.6470588 17.0420168,33.6470588 L10.0840336,31.4957983 L10.0840336,24.4369748 L11.1596639,24.4369748 C12.4369748,24.4369748 16.0336134,24.8403361 17.3445378,26.7226891 C17.5462185,26.9915966 17.8487395,27.1596639 18.1848739,27.1596639 L23.092437,27.1596639 C23.5294118,27.1596639 23.9327731,27.4621849 23.9663866,27.8655462 C23.9663866,27.8991597 23.9663866,27.9327731 23.9663866,27.9663866 C23.9663866,28 23.9663866,28.0336134 23.9663866,28.0336134 C23.9663866,28.0672269 23.9663866,28.0672269 23.9663866,28.1008403 C23.9663866,28.1344538 23.9663866,28.1680672 23.9327731,28.1680672 C23.9327731,28.2016807 23.9327731,28.2016807 23.8991597,28.2352941 C23.7647059,28.5042017 23.4957983,28.7058824 23.1596639,28.7058824 L16.0672269,28.7058824 C15.4957983,28.7058824 15.0588235,29.1428571 15.0588235,29.7142857 C15.0588235,30.2857143 15.4957983,30.7226891 16.0672269,30.7226891 L23.1932773,30.7226891 C24.1680672,30.7226891 25.0420168,30.2184874 25.5462185,29.4453782 C25.5462185,29.4453782 25.5462185,29.4453782 25.5798319,29.4117647 C25.6134454,29.3781513 25.6134454,29.3445378 25.6470588,29.3109244 C25.6470588,29.2773109 25.6806723,29.2436975 25.6806723,29.2436975 C25.7142857,29.1764706 25.7478992,29.1092437 25.7815126,29.0084034 C25.7815126,29.0084034 25.7815126,29.0084034 25.7815126,28.9747899 C25.8151261,28.907563 25.8487395,28.8403361 25.8487395,28.7394958 C25.8487395,28.7394958 25.8487395,28.7058824 25.8487395,28.6722689 C25.8823529,28.605042 25.8823529,28.5378151 25.9159664,28.4705882 C25.9159664,28.4369748 25.9159664,28.4369748 25.9159664,28.4033613 C25.9159664,28.3361345 25.9495798,28.2689076 25.9495798,28.2016807 C25.9495798,28.1680672 25.9495798,28.1680672 25.9495798,28.1344538 C25.9495798,27.9663866 25.9831933,27.7983193 25.9495798,27.6302521 C25.8151261,26.1848739 24.5714286,25.0756303 23.0588235,25.0756303 L18.6890756,25.0756303 C16.3361345,22.3865546 11.394958,22.3529412 11.1932773,22.3529412 L7.93277311,22.3529412 C7.6302521,21.6134454 6.8907563,21.0756303 6.01680672,21.0756303 L1.21008403,21.0756303 C0.638655462,21.0756303 0.201680672,21.512605 0.201680672,22.0840336 C0.201680672,22.6554622 0.638655462,23.092437 1.21008403,23.092437 L6.01680672,23.092437 C6.05042017,23.092437 6.08403361,23.1260504 6.08403361,23.1260504 L6.08403361,23.3613445 L6.08403361,31.5630252 L6.08403361,31.8991597 L1.21008403,31.8991597 C0.638655462,31.8991597 0.201680672,32.3361345 0.201680672,32.907563 C0.201680672,33.4789916 0.638655462,33.9159664 1.21008403,33.9159664 L6.08403361,33.9159664 C6.85714286,33.9159664 7.52941176,33.4789916 7.86554622,32.8739496 L16.4705882,35.5630252 C16.5714286,35.5966387 17.9159664,35.9663866 19.5294118,35.9663866 C20.4033613,35.9663866 21.3109244,35.8655462 22.1512605,35.5294118 C23.9327731,34.8235294 30.6218487,31.2941176 33.4117647,29.8151261 C34.3865546,29.3109244 35.1260504,28.1008403 34.5882353,26.8907563 Z M14.0840336,16.4369748 C13.351489,16.4369748 12.6745899,16.8277826 12.3083176,17.4621848 C11.9420453,18.0965871 11.9420453,18.8782028 12.3083176,19.5126051 C12.6745899,20.1470073 13.351489,20.5378151 14.0840336,20.5378151 C14.8165782,20.5378151 15.4934773,20.1470073 15.8597496,19.5126051 C16.2260219,18.8782028 16.2260219,18.0965871 15.8597496,17.4621848 C15.4934773,16.8277826 14.8165782,16.4369748 14.0840336,16.4369748 L14.0840336,16.4369748 Z M17.8487395,0.100840336 C17.3563735,0.100840336 16.9014085,0.363514465 16.6552255,0.789915955 C16.4090424,1.21631744 16.4090424,1.74166575 16.6552255,2.16806724 C16.9014085,2.59446873 17.3563735,2.85714286 17.8487395,2.85714286 C18.3411055,2.85714286 18.7960705,2.59446873 19.0422535,2.16806724 C19.2884366,1.74166575 19.2884366,1.21631744 19.0422535,0.789915955 C18.7960705,0.363514465 18.3411055,0.100840336 17.8487395,0.100840336 L17.8487395,0.100840336 Z M23.8319328,6.42016807 C23.275007,6.42016807 22.8235294,6.87164563 22.8235294,7.42857143 C22.8235294,7.98549723 23.275007,8.43697479 23.8319328,8.43697479 C24.3888586,8.43697479 24.8403361,7.98549723 24.8403361,7.42857143 C24.8403361,6.87164563 24.3888586,6.42016807 23.8319328,6.42016807 Z" id="Shape"></path>
                <path d="M19.1932773,23.394958 C19.7647059,23.394958 20.2016807,22.9579832 20.2016807,22.3865546 L20.2016807,11.4957983 C20.2016807,9.24369748 21.0756303,7.15966387 22.6554622,5.57983193 C23.0588235,5.17647059 23.0588235,4.53781513 22.6554622,4.16806723 C22.2521008,3.79831933 21.6134454,3.76470588 21.2436975,4.16806723 C19.2941176,6.11764706 18.2184874,8.7394958 18.2184874,11.5294118 L18.2184874,22.4537815 C18.1848739,22.9579832 18.6554622,23.394958 19.1932773,23.394958 Z" id="Path"></path>
            </g>
            <path d="M34.5546218,8.80672269 C35.092437,8.80672269 35.5630252,9.24369748 35.5630252,9.81512605 L35.5630252,9.81512605 L35.5630252,12.6386555 C35.5630252,19.2268908 30.2184874,24.5714286 23.6302521,24.5714286 L23.6302521,24.5714286 L23.5178487,24.5656919 C23.0025023,24.5125677 22.6218487,24.0963585 22.6218487,23.5630252 L22.6218487,23.5630252 L22.6218487,20.7394958 C22.6218487,14.1512605 27.9663866,8.80672269 34.5546218,8.80672269 Z M33.5462185,10.8906805 C28.5378151,11.394958 24.6386555,15.6302521 24.6386555,20.7394958 L24.6386555,20.7394958 L24.6386555,22.5210084 C29.6470588,22.0168067 33.5462185,10.8571429 33.5462185,10.8906805 Z" id="Combined-Shape" fill="#3BCEAC"></path>
            <path d="M28.3361345,-1.33226763e-14 C28.907563,-1.33226763e-14 29.3445378,0.43697479 29.3445378,1.00840336 L29.3445378,1.00840336 L29.3445378,2.11764706 C29.3445378,5.1092437 26.9243697,7.49579832 23.9663866,7.52941176 L23.9663866,7.52941176 L23.8539832,7.52367507 C23.3386368,7.47055089 22.9579832,7.05434174 22.9579832,6.5210084 L22.9579832,6.5210084 L22.9579832,5.37815126 C22.9579832,2.42016807 25.3781513,-1.33226763e-14 28.3361345,-1.33226763e-14 Z M27.3277311,2.18487395 C25.9831933,2.58823529 24.9747899,3.86554622 24.9747899,5.34453782 C26.3193277,4.90756303 27.3277311,3.66386555 27.3277311,2.18487395 Z" id="Combined-Shape" fill="#3BCEAC"></path>
            <path d="M7.46218487,5.44537815 C12.2352941,5.44537815 16.1008403,9.31092437 16.1008403,14.0840336 L16.1008403,14.0840336 L16.1008403,16.0672269 C16.1008403,16.6386555 15.6638655,17.0756303 15.092437,17.0756303 C10.3193277,17.0756303 6.45378151,13.210084 6.45378151,8.43697479 L6.45378151,8.43697479 L6.45378151,6.45378151 C6.45378151,5.88235294 6.8907563,5.44537815 7.46218487,5.44537815 Z M8.47058824,7.52941176 L8.47058824,8.43697479 C8.47058824,11.7310924 10.9243697,14.487395 14.0840336,14.9915966 C14.0840336,14.9915966 11.6638655,8 8.47058824,7.52941176 L8.47058824,7.52941176 Z" id="Combined-Shape" fill="#3BCEAC"></path>
        </g>
    </g>
</svg>